# Alias OBJ Model File
# Exported from SketchUp, (c) 2000-2012 Trimble Navigation Limited
# File units = feet

mtllib icetop_tank.mtl

g Mesh1 Model

usemtl RoundWallTexture
v 0.69848 0 3.96777
vt 5 0
vn 0.186305 0 0.982492
v 1.63207 0 3.66015
vt 6.66667 0
vn 0.434245 0 0.900795
v 1.63207 5.47347 3.66015
vt 6.66667 0.407137
v 0.69848 5.47347 3.96777
vt 5 0.407137
f 1/1/1 2/2/2 3/3/2 4/4/1 

v 2.45422 0 3.12139
vt 8.33333 0
vn 0.652591 0 0.75771
v 2.45422 5.47347 3.12139
vt 8.33333 0.407137
f 2/2/2 5/5/3 6/6/3 3/3/2 

v 3.10892 0 2.38819
vt 10 0
vn 0.826464 0 0.562989
v 3.10892 5.47347 2.38819
vt 10 0.407137
f 5/5/3 7/7/4 8/8/4 6/6/3 

v 3.55155 0 1.51052
vt 11.6667 0
vn 0.944016 0 0.329901
v 3.55155 5.47347 1.51052
vt 11.6667 0.407137
f 7/7/4 9/9/5 10/10/5 8/8/4 

v 3.75194 0 0.5482
vt 13.3333 0
vn 0.997234 0 0.0743307
v 3.75194 5.47347 0.5482
vt 13.3333 0.407137
f 9/9/5 11/11/6 12/12/6 10/10/5 

v 3.69643 0 -0.433194
vt 15 0
vn 0.982492 0 -0.186305
v 3.69643 5.47347 -0.433194
vt 15 0.407137
f 11/11/6 13/13/7 14/14/7 12/12/6 

v 3.38881 0 -1.36678
vt 16.6667 0
vn 0.900795 0 -0.434245
v 3.38881 5.47347 -1.36678
vt 16.6667 0.407137
f 13/13/7 15/15/8 16/16/8 14/14/7 

v 2.85004 0 -2.18894
vt 18.3333 0
vn 0.75771 0 -0.652591
v 2.85004 5.47347 -2.18894
vt 18.3333 0.407137
f 15/15/8 17/17/9 18/18/9 16/16/8 

v 2.11684 0 -2.84364
vt 20 0
vn 0.562989 0 -0.826464
v 2.11684 5.47347 -2.84364
vt 20 0.407137
f 17/17/9 19/19/10 20/20/10 18/18/9 

v 1.23917 0 -3.28626
vt 21.6667 0
vn 0.329901 0 -0.944016
v 1.23917 5.47347 -3.28626
vt 21.6667 0.407137
f 19/19/10 21/21/11 22/22/11 20/20/10 

v 0.276853 0 -3.48665
vt 23.3333 0
vn 0.0743307 0 -0.997234
v 0.276853 5.47347 -3.48665
vt 23.3333 0.407137
f 21/21/11 23/23/12 24/24/12 22/22/11 

v -0.70454 0 -3.43114
vt 25 0
vn -0.186305 0 -0.982492
v -0.70454 5.47347 -3.43114
vt 25 0.407137
f 23/23/12 25/25/13 26/26/13 24/24/12 

v -1.63813 0 -3.12352
vt 26.6667 0
vn -0.434245 0 -0.900795
v -1.63813 5.47347 -3.12352
vt 26.6667 0.407137
f 25/25/13 27/27/14 28/28/14 26/26/13 

v -2.46028 0 -2.58475
vt 28.3333 0
vn -0.652591 0 -0.75771
v -2.46028 5.47347 -2.58475
vt 28.3333 0.407137
f 27/27/14 29/29/15 30/30/15 28/28/14 

v -3.11498 0 -1.85155
vt 30 0
vn -0.826464 0 -0.562989
v -3.11498 5.47347 -1.85155
vt 30 0.407137
f 29/29/15 31/31/16 32/32/16 30/30/15 

v -3.55761 0 -0.973887
vt 31.6667 0
vn -0.944016 0 -0.329901
v -3.55761 5.47347 -0.973887
vt 31.6667 0.407137
f 31/31/16 33/33/17 34/34/17 32/32/16 

v -3.758 0 -0.0115669
vt 33.3333 0
vn -0.997234 0 -0.0743307
v -3.758 5.47347 -0.0115669
vt 33.3333 0.407137
f 33/33/17 35/35/18 36/36/18 34/34/17 

v -3.70249 0 0.969827
vt 35 0
vn -0.982492 0 0.186305
v -3.70249 5.47347 0.969827
vt 35 0.407137
f 35/35/18 37/37/19 38/38/19 36/36/18 

v -3.39487 0 1.90341
vt 36.6667 0
vn -0.900795 0 0.434245
v -3.39487 5.47347 1.90341
vt 36.6667 0.407137
f 37/37/19 39/39/20 40/40/20 38/38/19 

v -2.8561 0 2.72557
vt 38.3333 0
vn -0.75771 0 0.652591
v -2.8561 5.47347 2.72557
vt 38.3333 0.407137
f 39/39/20 41/41/21 42/42/21 40/40/20 

v -2.1229 0 3.38027
vt 40 0
vn -0.562989 0 0.826464
v -2.1229 5.47347 3.38027
vt 40 0.407137
f 41/41/21 43/43/22 44/44/22 42/42/21 

vt -2.58682e-014 0
v -1.24523 0 3.8229
vt 1.66667 0
vn -0.329901 0 0.944016
v -1.24523 5.47347 3.8229
vt 1.66667 0.407137
vt -2.58682e-014 0.407137
f 43/45/22 45/46/23 46/47/23 44/48/22 

v -0.282914 0 4.02328
vt 3.33333 0
vn -0.0743307 0 0.997234
v -0.282914 5.47347 4.02328
vt 3.33333 0.407137
f 45/46/23 47/49/24 48/50/24 46/47/23 

f 47/49/24 1/1/1 4/4/1 48/50/24 

usemtl Google_Earth_Snapshot
vt 0.485601 0.177109
vn 0 1 -0
vt 0.523706 0.201821
vt 0.556871 0.243008
vt 0.582833 0.297863
vt 0.599826 0.362647
vt 0.60669 0.432947
vt 0.602957 0.50397
vt 0.588883 0.570877
vt 0.565426 0.629109
vt 0.534184 0.674696
vt 0.497287 0.704532
vt 0.457249 0.716584
vt 0.4168 0.71003
vt 0.378694 0.685317
vt 0.34553 0.64413
vt 0.319567 0.589274
vt 0.302575 0.524489
vt 0.295711 0.454189
vt 0.299444 0.383166
vt 0.313519 0.316259
vt 0.336976 0.258029
vt 0.368218 0.212442
vt 0.405114 0.182606
vt 0.445152 0.170555
f 4/51/25 3/52/25 6/53/25 8/54/25 10/55/25 12/56/25 14/57/25 16/58/25 18/59/25 20/60/25 22/61/25 24/62/25 26/63/25 28/64/25 30/65/25 32/66/25 34/67/25 36/68/25 38/69/25 40/70/25 42/71/25 44/72/25 46/73/25 48/74/25 

